<?xml version="1.0" encoding="iso-8859-1"?>
<!-- Generator: Adobe Illustrator 18.0.0, SVG Export Plug-In . SVG Version: 6.00 Build 0)  -->
<!DOCTYPE svg PUBLIC "-//W3C//DTD SVG 1.1//EN" "http://www.w3.org/Graphics/SVG/1.1/DTD/svg11.dtd">
<!-- License: CC0. Made by SVG Repo: https://www.svgrepo.com/svg/135611/image -->
<svg version="1.1" id="Capa_1" xmlns="http://www.w3.org/2000/svg" xmlns:xlink="http://www.w3.org/1999/xlink" x="0px" y="0px"
	 viewBox="0 0 433 433" style="enable-background:new 0 0 433 433;" xml:space="preserve">
<path style="fill:#576D7E;" d="M233.6,171.41c14.76,0,26.72,11.96,26.72,26.72c0,14.76-11.96,26.72-26.72,26.72
	c-14.76,0-26.72-11.96-26.72-26.72C206.88,183.37,218.84,171.41,233.6,171.41z"/>
<polygon style="fill:#576D7E;" points="336.74,302.78 336.74,376.26 249.18,376.26 203.28,305.11 282.59,242.66 "/>
<polygon style="fill:#576D7E;" points="203.28,305.11 249.18,376.26 96.26,376.26 96.26,316.14 160.12,238.21 "/>
<path style="fill:#C8BDB8;" d="M336.74,142.46v160.32l-54.15-60.12l-79.31,62.45l-43.16-66.9l-63.86,77.93V142.46H336.74z
	 M260.32,198.13c0-14.76-11.96-26.72-26.72-26.72c-14.76,0-26.72,11.96-26.72,26.72c0,14.76,11.96,26.72,26.72,26.72
	C248.36,224.85,260.32,212.89,260.32,198.13z"/>
<polygon style="fill:#D9D7CA;" points="389.7,93.47 296.21,93.47 296.21,0 "/>
<path style="fill:#E9E9E0;" d="M389.7,93.47V433H43.3V0h252.91v93.47H389.7z M336.74,376.26v-73.48V142.46H96.26v173.68v60.12
	h152.92H336.74z"/>
</svg>
